<svg width="175" height="32" viewBox="0 0 175 32" fill="none" xmlns="http://www.w3.org/2000/svg">
<path fill-rule="evenodd" clip-rule="evenodd" d="M8.96402 12.7947L8.96402 8.36948L24.0096 8.36948L24.0096 12.7947H24.0094L24.0094 23.8577L20.0268 23.8577L20.0268 15.4557L9.78438 25.6981L6.93263 22.8463L16.9843 12.7947L8.96402 12.7947Z" fill="#F8BBD0"/>
<path d="M30.8004 25.6192H38.0949C42.1474 25.6192 44.8666 24.0663 46.1477 21.336C46.749 20.0836 47.0105 18.6058 47.0105 16.7772C47.0105 14.9487 46.749 13.4709 46.1477 12.2185C44.8927 9.48823 42.1474 7.93524 38.0949 7.93524H30.8004V25.6192ZM34.6699 22.4381V11.1164H37.4936C40.0558 11.1164 41.5984 11.968 42.3305 13.5961C42.7226 14.4227 42.9057 15.3996 42.9057 16.7772C42.9057 18.1549 42.7226 19.1318 42.3305 19.9584C41.5984 21.5614 40.082 22.4381 37.4936 22.4381H34.6699Z" fill="#F8BBD0"/>
<path d="M50.3573 25.6192H62.1749V22.5383H54.2268V18.1549H62.0965V15.1241H54.2268V11.0162H62.1749V7.93524H50.3573V25.6192Z" fill="#F8BBD0"/>
<path d="M72.3197 26.0701C75.8231 26.0701 78.4376 24.9179 79.4312 22.7888C79.7449 22.1125 79.9279 21.3611 79.9279 20.4844C79.9279 19.6327 79.7711 18.9314 79.5096 18.3302C78.6468 16.5268 76.5552 15.7753 74.1498 15.1491C71.9275 14.573 69.862 14.2474 69.313 13.1202C69.2084 12.8447 69.1822 12.6192 69.1822 12.3187C69.1822 12.0181 69.2084 11.7927 69.3391 11.5171C69.7051 10.7406 70.7248 10.2647 72.0582 10.2647C73.4701 10.2647 74.3851 10.7406 74.8296 11.6424C75.0388 12.0932 75.1172 12.5942 75.1172 13.2204H79.1174C79.1174 12.2185 78.9606 11.4169 78.6207 10.6404C77.6533 8.5865 75.3525 7.48438 72.2151 7.48438C68.9992 7.48438 66.5677 8.66164 65.6788 10.6154C65.365 11.2666 65.182 11.9429 65.182 12.7194C65.182 13.521 65.365 14.1472 65.6003 14.6982C66.3586 16.3264 68.2149 17.153 70.3588 17.704C72.6073 18.3302 74.8558 18.6559 75.4832 19.9834C75.614 20.2589 75.6924 20.5345 75.6924 20.9102C75.6924 21.2358 75.614 21.5364 75.4571 21.8871C75.0649 22.7137 73.9668 23.1896 72.4504 23.1896C70.8294 23.1896 69.7836 22.6636 69.313 21.6867C69.1038 21.2358 69.0254 20.6848 69.0254 20.0586H64.7637C64.7898 21.0605 64.9467 21.9622 65.3127 22.7387C66.2801 24.7676 68.6332 26.0701 72.3197 26.0701Z" fill="#F8BBD0"/>
<path d="M83.0623 25.6192H86.9318V7.93524H83.0623V25.6192Z" fill="#F8BBD0"/>
<path d="M99.5283 16.0008V18.8312H104.078C104.051 19.6077 103.921 20.1587 103.659 20.7349C102.979 22.1376 101.541 22.8389 99.5021 22.8389C97.3582 22.8389 95.8157 22.0374 95.0574 20.4343C94.613 19.4824 94.43 18.4555 94.43 16.7772C94.43 15.099 94.613 14.047 95.0574 13.1202C95.7895 11.5422 97.2798 10.7156 99.3976 10.7156C100.731 10.7156 101.881 11.0412 102.64 11.7175C103.293 12.2686 103.659 13.0451 103.79 14.0219H107.79C107.633 12.1684 106.823 10.5653 105.516 9.43813C104.051 8.16068 101.96 7.48438 99.4498 7.48438C95.3973 7.48438 92.6259 9.13755 91.2402 12.0431C90.6389 13.3206 90.3252 14.8736 90.3252 16.7772C90.3252 18.6809 90.6389 20.2339 91.2402 21.5113C92.5998 24.3919 95.3973 26.0701 99.3976 26.0701C103.136 26.0701 105.699 24.6424 107.006 21.8871C107.659 20.4844 107.947 18.8813 107.947 17.2031V16.0008H99.5283Z" fill="#F8BBD0"/>
<path d="M111.299 25.6192H115.064V13.4959L123.195 25.6192H127.169V7.93524H123.404V20.0836L115.247 7.93524H111.299V25.6192Z" fill="#F8BBD0"/>
<path d="M145.378 26.0701C147.862 26.0701 150.058 25.3437 151.549 24.0162C152.908 22.8389 153.745 21.1356 153.797 19.1067H149.692C149.64 20.2589 149.196 21.1356 148.49 21.7368C147.705 22.4131 146.607 22.7888 145.222 22.7888C143.208 22.7888 141.77 21.9873 141.038 20.4343C140.594 19.5075 140.437 18.3553 140.437 16.7772C140.437 15.1742 140.62 14.072 141.038 13.1453C141.744 11.6424 143.13 10.7657 145.222 10.7657C146.607 10.7657 147.627 11.1414 148.411 11.7927C149.143 12.4439 149.562 13.3456 149.614 14.5229H153.719C153.64 12.494 152.856 10.7406 151.418 9.51328C149.928 8.21077 147.836 7.48438 145.352 7.48438C141.326 7.48438 138.555 9.18765 137.247 12.0181C136.62 13.3707 136.306 14.9237 136.306 16.7772C136.306 18.6308 136.594 20.1838 137.221 21.5364C138.581 24.4169 141.378 26.0701 145.378 26.0701Z" fill="#F8BBD0"/>
<path d="M165.572 26.0701C169.599 26.0701 172.318 24.4169 173.651 21.6115C174.305 20.2589 174.619 18.5807 174.619 16.7772C174.619 14.9738 174.305 13.3206 173.651 11.9429C172.344 9.1626 169.599 7.48438 165.599 7.48438C161.572 7.48438 158.801 9.1626 157.494 11.968C156.866 13.3456 156.552 14.9988 156.552 16.7772C156.552 18.5807 156.866 20.2339 157.52 21.5865C158.827 24.4169 161.572 26.0701 165.572 26.0701ZM165.599 22.7387C163.376 22.7387 161.99 21.8119 161.285 20.309C160.84 19.3322 160.657 18.2551 160.657 16.7772C160.657 15.2994 160.84 14.2223 161.285 13.2455C161.99 11.7426 163.376 10.8158 165.572 10.8158C167.795 10.8158 169.18 11.7426 169.886 13.2455C170.357 14.2223 170.514 15.2994 170.514 16.7772C170.514 18.2551 170.331 19.3322 169.886 20.284C169.18 21.8119 167.821 22.7387 165.599 22.7387Z" fill="#F8BBD0"/>
</svg>
