<?xml version="1.0" encoding="UTF-8"?>
<svg width="2400px" height="2400px" viewBox="0 0 2400 2400" version="1.1" xmlns="http://www.w3.org/2000/svg" xmlns:xlink="http://www.w3.org/1999/xlink">
    <!-- Generator: Sketch 48.2 (47327) - http://www.bohemiancoding.com/sketch -->
    <title>Square Copy 2</title>
    <desc>Created with Sketch.</desc>
    <defs>
        <filter x="-2.5%" y="-1.1%" width="105.1%" height="103.4%" filterUnits="objectBoundingBox" id="filter-1">
            <feOffset dx="0" dy="9" in="SourceAlpha" result="shadowOffsetOuter1"></feOffset>
            <feGaussianBlur stdDeviation="7.5" in="shadowOffsetOuter1" result="shadowBlurOuter1"></feGaussianBlur>
            <feColorMatrix values="0 0 0 0 0   0 0 0 0 0   0 0 0 0 0  0 0 0 0.211050725 0" type="matrix" in="shadowBlurOuter1" result="shadowMatrixOuter1"></feColorMatrix>
            <feMerge>
                <feMergeNode in="shadowMatrixOuter1"></feMergeNode>
                <feMergeNode in="SourceGraphic"></feMergeNode>
            </feMerge>
        </filter>
    </defs>
    <g id="Page-1" stroke="none" stroke-width="1" fill="none" fill-rule="evenodd">
        <g id="Square-Copy-2">
            <circle id="Oval-6" fill="#EB5E6C" cx="1200" cy="1200" r="1200"></circle>
            <g id="Group-2" filter="url(#filter-1)" transform="translate(667.000000, 430.000000)">
                <path d="M532,0 L532,1275.5716 L387.102128,1275.5716 C363.353883,1275.5716 344.102128,1256.31984 344.102128,1232.5716 L344.102128,1175.18682 C339.287799,1078.99734 291.871165,991.72394 201.852223,913.366629 C78.8814781,819.599098 0,674.624119 0,511.92075 C0,229.194727 238.184513,1.60904871e-13 532,8.47217707e-29 Z" id="Combined-Shape" fill="#FFD059"></path>
                <path d="M1063,0 L1063,1275.5716 L918.102128,1275.5716 C894.353883,1275.5716 875.102128,1256.31984 875.102128,1232.5716 L875.102128,1175.18682 C870.287799,1078.99734 822.871165,991.72394 732.852223,913.366629 C609.881478,819.599098 531,674.624119 531,511.92075 C531,229.194727 769.184513,1.60904871e-13 1063,8.47217707e-29 Z" id="Combined-Shape-Copy" fill="#FFD059" transform="translate(797.000000, 637.785800) scale(-1, 1) translate(-797.000000, -637.785800) "></path>
                <ellipse id="Oval-5" fill="#818285" cx="535.5" cy="1431.47533" rx="161.5" ry="155.475331"></ellipse>
                <path d="M501.636837,1125.17949 L501.636837,817.596832 C507.397289,754.857626 488.885016,723.488024 446.100017,723.488024 C381.92252,723.488024 421.123911,827.991115 526.467416,817.596832 C631.810921,807.202548 647.637004,786.883312 650.68398,755.185668 C653.730956,723.488024 588.807632,692.774504 583.01383,755.185668 C579.151296,796.79311 579.151296,913.087453 583.01383,1104.06869" id="Path-6" stroke="#F5B000" stroke-width="20"></path>
                <circle id="Oval-8" fill="#F5B000" cx="533.5" cy="1160.5" r="122.5"></circle>
                <path d="M527.046881,1174.40046 L528.10582,1161 L727.275138,1181.54722 L732.866738,1202.41177 L711.53987,1374.89788 L551.883114,1377.52152 L552.924178,1390.69578 L352.326869,1387.39936 L331,1214.91325 L336.591601,1194.0487 L527.046881,1174.40046 Z" id="Combined-Shape" fill="#989898"></path>
                <path d="M347.811071,1126.31649 L722.188929,1126.31649 C748.04197,1126.31649 769,1147.27452 769,1173.12756 C769,1198.9806 748.04197,1219.93863 722.188929,1219.93863 L347.811071,1219.93863 C321.95803,1219.93863 301,1198.9806 301,1173.12756 C301,1147.27452 321.95803,1126.31649 347.811071,1126.31649 Z M359.115419,1239.93863 L710.884581,1239.93863 C736.737622,1239.93863 757.695652,1260.89666 757.695652,1286.7497 C757.695652,1312.60274 736.737622,1333.56077 710.884581,1333.56077 L359.115419,1333.56077 C333.262378,1333.56077 312.304348,1312.60274 312.304348,1286.7497 C312.304348,1260.89666 333.262378,1239.93863 359.115419,1239.93863 Z M370.419767,1353.56077 L699.580233,1353.56077 C725.433274,1353.56077 746.391304,1374.5188 746.391304,1400.37184 C746.391304,1426.22488 725.433274,1447.18291 699.580233,1447.18291 L370.419767,1447.18291 C344.566726,1447.18291 323.608696,1426.22488 323.608696,1400.37184 C323.608696,1374.5188 344.566726,1353.56077 370.419767,1353.56077 Z" id="Combined-Shape" fill="#CBCBCB"></path>
                <path d="M411.762057,240.042023 C372.833805,182.590858 306.829462,176.177395 213.749027,220.801635 C120.668593,265.425875 87.8947396,316.033144 115.427467,372.623442 C160.773091,425.120706 226.793743,425.120706 313.489422,372.623442 C400.185101,320.126177 432.942646,275.932371 411.762057,240.042023 Z" id="Path-2" fill="#FFFFFF" transform="translate(262.000000, 301.767750) rotate(-26.000000) translate(-262.000000, -301.767750) "></path>
            </g>
        </g>
    </g>
</svg>