<svg width="174" height="32" viewBox="0 0 174 32" fill="none" xmlns="http://www.w3.org/2000/svg">
<path fill-rule="evenodd" clip-rule="evenodd" d="M8.25412 11.948L8.25412 7.5228L23.2997 7.5228L23.2997 11.948H23.2995L23.2995 23.011L19.3169 23.011L19.3169 14.609L9.07448 24.8514L6.22273 21.9996L16.2744 11.948L8.25412 11.948Z" fill="#FFFFFF"/>
<path d="M30.0905 24.7727H37.385C41.4375 24.7727 44.1567 23.2197 45.4378 20.4895C46.0391 19.237 46.3006 17.7592 46.3006 15.9307C46.3006 14.1022 46.0391 12.6243 45.4378 11.3719C44.1828 8.64167 41.4375 7.08868 37.385 7.08868H30.0905V24.7727ZM33.96 21.5916V10.2698H36.7837C39.3459 10.2698 40.8885 11.1214 41.6206 12.7496C42.0127 13.5762 42.1958 14.553 42.1958 15.9307C42.1958 17.3083 42.0127 18.2852 41.6206 19.1118C40.8885 20.7149 39.3721 21.5916 36.7837 21.5916H33.96Z" fill="#FFFFFF"/>
<path d="M49.6474 24.7727H61.465V21.6918H53.5169V17.3083H61.3866V14.2775H53.5169V10.1696H61.465V7.08868H49.6474V24.7727Z" fill="#FFFFFF"/>
<path d="M71.6098 25.2236C75.1132 25.2236 77.7277 24.0713 78.7213 21.9422C79.035 21.2659 79.218 20.5145 79.218 19.6378C79.218 18.7862 79.0612 18.0848 78.7997 17.4837C77.9369 15.6802 75.8453 14.9288 73.4399 14.3026C71.2176 13.7264 69.1521 13.4008 68.6031 12.2737C68.4985 11.9981 68.4723 11.7727 68.4723 11.4721C68.4723 11.1715 68.4985 10.9461 68.6292 10.6706C68.9952 9.89408 70.0149 9.41816 71.3483 9.41816C72.7602 9.41816 73.6752 9.89408 74.1197 10.7958C74.3289 11.2467 74.4073 11.7476 74.4073 12.3738H78.4075C78.4075 11.3719 78.2507 10.5704 77.9108 9.79389C76.9434 7.73994 74.6426 6.63782 71.5052 6.63782C68.2893 6.63782 65.8578 7.81508 64.9689 9.76884C64.6551 10.4201 64.4721 11.0964 64.4721 11.8729C64.4721 12.6744 64.6551 13.3006 64.8904 13.8517C65.6487 15.4798 67.505 16.3064 69.6489 16.8575C71.8974 17.4837 74.1459 17.8093 74.7733 19.1369C74.9041 19.4124 74.9825 19.6879 74.9825 20.0636C74.9825 20.3893 74.9041 20.6898 74.7472 21.0405C74.355 21.8671 73.2569 22.343 71.7405 22.343C70.1195 22.343 69.0737 21.817 68.6031 20.8401C68.3939 20.3893 68.3155 19.8382 68.3155 19.212H64.0538C64.0799 20.2139 64.2368 21.1157 64.6028 21.8922C65.5702 23.9211 67.9233 25.2236 71.6098 25.2236Z" fill="#FFFFFF"/>
<path d="M82.3524 24.7727H86.2219V7.08868H82.3524V24.7727Z" fill="#FFFFFF"/>
<path d="M98.8184 15.1542V17.9846H103.368C103.342 18.7611 103.211 19.3122 102.949 19.8883C102.27 21.291 100.832 21.9923 98.7922 21.9923C96.6483 21.9923 95.1058 21.1908 94.3475 19.5877C93.9031 18.6359 93.7201 17.6089 93.7201 15.9307C93.7201 14.2525 93.9031 13.2004 94.3475 12.2737C95.0796 10.6956 96.5699 9.86903 98.6877 9.86903C100.021 9.86903 101.171 10.1947 101.93 10.871C102.583 11.422 102.949 12.1985 103.08 13.1754H107.08C106.923 11.3218 106.113 9.71874 104.806 8.59157C103.342 7.31412 101.25 6.63782 98.7399 6.63782C94.6874 6.63782 91.916 8.291 90.5303 11.1966C89.929 12.474 89.6153 14.027 89.6153 15.9307C89.6153 17.8343 89.929 19.3873 90.5303 20.6648C91.8899 23.5453 94.6874 25.2236 98.6877 25.2236C102.426 25.2236 104.989 23.7958 106.296 21.0405C106.95 19.6378 107.237 18.0347 107.237 16.3565V15.1542H98.8184Z" fill="#FFFFFF"/>
<path d="M110.589 24.7727H114.354V12.6494L122.485 24.7727H126.459V7.08868H122.694V19.237L114.537 7.08868H110.589V24.7727Z" fill="#FFFFFF"/>
<path d="M144.669 25.2236C147.152 25.2236 149.349 24.4972 150.839 23.1696C152.198 21.9923 153.035 20.2891 153.087 18.2602H148.982C148.93 19.4124 148.486 20.2891 147.78 20.8902C146.995 21.5665 145.897 21.9422 144.512 21.9422C142.498 21.9422 141.06 21.1407 140.328 19.5877C139.884 18.6609 139.727 17.5087 139.727 15.9307C139.727 14.3276 139.91 13.2255 140.328 12.2987C141.034 10.7958 142.42 9.91913 144.512 9.91913C145.897 9.91913 146.917 10.2949 147.701 10.9461C148.433 11.5974 148.852 12.4991 148.904 13.6764H153.009C152.93 11.6474 152.146 9.89408 150.708 8.66672C149.218 7.36421 147.126 6.63782 144.642 6.63782C140.616 6.63782 137.845 8.34109 136.537 11.1715C135.91 12.5241 135.596 14.0771 135.596 15.9307C135.596 17.7843 135.884 19.3372 136.511 20.6898C137.871 23.5704 140.668 25.2236 144.669 25.2236Z" fill="#FFFFFF"/>
<path d="M164.862 25.2236C168.889 25.2236 171.608 23.5704 172.941 20.765C173.595 19.4124 173.909 17.7342 173.909 15.9307C173.909 14.1272 173.595 12.474 172.941 11.0964C171.634 8.31605 168.889 6.63782 164.889 6.63782C160.862 6.63782 158.091 8.31605 156.784 11.1214C156.156 12.4991 155.842 14.1523 155.842 15.9307C155.842 17.7342 156.156 19.3873 156.81 20.7399C158.117 23.5704 160.862 25.2236 164.862 25.2236ZM164.889 21.8922C162.666 21.8922 161.281 20.9654 160.575 19.4625C160.13 18.4856 159.947 17.4085 159.947 15.9307C159.947 14.4528 160.13 13.3758 160.575 12.3989C161.281 10.896 162.666 9.96922 164.862 9.96922C167.085 9.96922 168.471 10.896 169.176 12.3989C169.647 13.3758 169.804 14.4528 169.804 15.9307C169.804 17.4085 169.621 18.4856 169.176 19.4374C168.471 20.9654 167.111 21.8922 164.889 21.8922Z" fill="#FFFFFF"/>
</svg>