<?xml version="1.0" standalone="no"?>
<!DOCTYPE svg PUBLIC "-//W3C//DTD SVG 20010904//EN"
 "http://www.w3.org/TR/2001/REC-SVG-20010904/DTD/svg10.dtd">
<svg version="1.0" xmlns="http://www.w3.org/2000/svg"
 width="622.000000pt" height="622.000000pt" viewBox="0 0 622.000000 622.000000"
 preserveAspectRatio="xMidYMid meet">
<metadata>
Created by potrace 1.11, written by Peter Selinger 2001-2013
</metadata>
<g transform="translate(0.000000,622.000000) scale(0.100000,-0.100000)"
fill="#000000" stroke="none">
<path d="M560 4675 l0 -1215 603 4 c331 2 619 6 641 9 298 45 521 149 680 317
164 175 252 373 284 645 9 77 9 414 -1 485 -50 388 -222 656 -527 822 -65 36
-194 83 -280 103 -163 38 -260 43 -837 44 l-563 2 0 -1216z m1075 764 c150
-18 302 -81 381 -157 62 -59 138 -184 149 -245 2 -9 6 -21 9 -25 3 -5 13 -44
22 -88 17 -84 24 -333 11 -432 -48 -363 -244 -554 -603 -587 -57 -6 -452 -10
-501 -6 -10 1 -13 163 -13 776 l0 776 233 -1 c127 -1 268 -6 312 -11z"/>
<path d="M3523 5521 l2 -306 548 0 c301 0 547 -2 547 -5 0 -3 -310 -315 -690
-695 l-689 -689 194 -193 c107 -106 196 -193 199 -193 3 0 321 315 707 700
385 385 703 700 705 700 2 0 4 -259 4 -575 l0 -575 274 0 275 0 -2 1068 -2
1067 -1037 1 -1036 0 1 -305z"/>
<path d="M1427 2864 c-329 -50 -583 -189 -756 -412 -186 -241 -270 -609 -236
-1032 34 -426 232 -757 557 -934 196 -106 427 -156 703 -150 165 3 195 6 305
29 360 78 636 293 753 586 34 84 62 207 66 281 l2 57 -280 0 c-255 -1 -281 -2
-282 -17 -8 -182 -112 -343 -274 -422 -215 -105 -530 -93 -715 27 -150 98
-243 271 -268 503 -9 86 -8 367 2 454 32 280 169 477 385 552 94 32 112 35
241 39 171 5 292 -26 407 -101 106 -71 180 -192 204 -335 l12 -75 280 0 279 0
-6 65 c-7 87 -47 241 -81 316 -130 284 -397 480 -755 556 -131 27 -407 34
-543 13z"/>
<path d="M4330 2865 c-109 -17 -121 -20 -205 -44 -281 -80 -506 -255 -635
-494 -108 -201 -158 -425 -158 -712 0 -295 39 -481 143 -694 75 -152 199 -299
321 -378 10 -7 35 -23 54 -36 111 -72 308 -137 491 -161 101 -13 358 -14 444
-2 22 4 56 9 75 11 81 12 231 60 319 101 407 192 622 587 623 1144 0 327 -66
583 -208 803 -54 83 -184 216 -265 269 -142 94 -331 165 -511 193 -80 13 -406
12 -488 0z m345 -449 c225 -24 396 -146 487 -346 60 -132 78 -256 73 -505 -3
-197 -15 -272 -64 -404 -76 -202 -254 -340 -474 -367 -179 -22 -328 -2 -462
62 -127 61 -216 160 -275 306 -31 78 -33 89 -55 213 -13 80 -14 396 -1 460 4
17 11 55 17 85 44 220 188 396 377 459 77 26 279 55 312 44 3 -1 32 -4 65 -7z"/>
</g>
</svg>
