<svg width="174" height="32" viewBox="0 0 174 32" fill="none" xmlns="http://www.w3.org/2000/svg">
<path fill-rule="evenodd" clip-rule="evenodd" d="M8.25455 11.948L8.25455 7.5228L23.3001 7.5228L23.3001 11.948H23.3L23.3 23.011L19.3173 23.011L19.3173 14.609L9.07491 24.8514L6.22316 21.9996L16.2748 11.948L8.25455 11.948Z" fill="black"/>
<path d="M30.0908 24.7726H37.3853C41.4379 24.7726 44.157 23.2196 45.4381 20.4893C46.0394 19.2369 46.3009 17.7591 46.3009 15.9306C46.3009 14.102 46.0394 12.6242 45.4381 11.3718C44.1831 8.64155 41.4379 7.08856 37.3853 7.08856H30.0908V24.7726ZM33.9603 21.5915V10.2697H36.784C39.3462 10.2697 40.8888 11.1213 41.6209 12.7494C42.013 13.576 42.1961 14.5529 42.1961 15.9306C42.1961 17.3082 42.013 18.2851 41.6209 19.1117C40.8888 20.7148 39.3724 21.5915 36.784 21.5915H33.9603Z" fill="black"/>
<path d="M49.6477 24.7726H61.4653V21.6916H53.5172V17.3082H61.3869V14.2774H53.5172V10.1695H61.4653V7.08856H49.6477V24.7726Z" fill="black"/>
<path d="M71.6101 25.2234C75.1135 25.2234 77.7281 24.0712 78.7216 21.9421C79.0353 21.2658 79.2183 20.5144 79.2183 19.6377C79.2183 18.7861 79.0615 18.0847 78.8 17.4836C77.9372 15.6801 75.8456 14.9286 73.4402 14.3024C71.2179 13.7263 69.1524 13.4007 68.6034 12.2735C68.4988 11.998 68.4726 11.7726 68.4726 11.472C68.4726 11.1714 68.4988 10.946 68.6295 10.6705C68.9955 9.89396 70.0152 9.41804 71.3486 9.41804C72.7605 9.41804 73.6755 9.89396 74.12 10.7957C74.3292 11.2466 74.4076 11.7475 74.4076 12.3737H78.4078C78.4078 11.3718 78.251 10.5703 77.9111 9.79376C76.9437 7.73982 74.6429 6.6377 71.5055 6.6377C68.2896 6.6377 65.8581 7.81496 64.9692 9.76872C64.6554 10.42 64.4724 11.0963 64.4724 11.8728C64.4724 12.6743 64.6554 13.3005 64.8907 13.8516C65.649 15.4797 67.5053 16.3063 69.6492 16.8573C71.8977 17.4836 74.1462 17.8092 74.7736 19.1367C74.9044 19.4123 74.9828 19.6878 74.9828 20.0635C74.9828 20.3891 74.9044 20.6897 74.7475 21.0404C74.3553 21.867 73.2572 22.3429 71.7408 22.3429C70.1198 22.3429 69.074 21.8169 68.6034 20.84C68.3942 20.3891 68.3158 19.8381 68.3158 19.2119H64.0541C64.0802 20.2138 64.2371 21.1155 64.6031 21.892C65.5705 23.9209 67.9236 25.2234 71.6101 25.2234Z" fill="black"/>
<path d="M82.3527 24.7726H86.2222V7.08856H82.3527V24.7726Z" fill="black"/>
<path d="M98.8187 15.1541V17.9845H103.368C103.342 18.761 103.211 19.3121 102.95 19.8882C102.27 21.2909 100.832 21.9922 98.7925 21.9922C96.6486 21.9922 95.1061 21.1907 94.3478 19.5876C93.9034 18.6358 93.7204 17.6088 93.7204 15.9306C93.7204 14.2523 93.9034 13.2003 94.3478 12.2735C95.0799 10.6955 96.5702 9.86891 98.688 9.86891C100.021 9.86891 101.172 10.1945 101.93 10.8708C102.584 11.4219 102.95 12.1984 103.08 13.1753H107.081C106.924 11.3217 106.113 9.71862 104.806 8.59145C103.342 7.314 101.25 6.6377 98.7402 6.6377C94.6877 6.6377 91.9163 8.29087 90.5306 11.1965C89.9293 12.4739 89.6156 14.0269 89.6156 15.9306C89.6156 17.8342 89.9293 19.3872 90.5306 20.6647C91.8902 23.5452 94.6877 25.2234 98.688 25.2234C102.427 25.2234 104.989 23.7957 106.296 21.0404C106.95 19.6377 107.237 18.0346 107.237 16.3564V15.1541H98.8187Z" fill="black"/>
<path d="M110.59 24.7726H114.354V12.6493L122.486 24.7726H126.46V7.08856H122.695V19.2369L114.537 7.08856H110.59V24.7726Z" fill="black"/>
<path d="M144.669 25.2234C147.153 25.2234 149.349 24.497 150.839 23.1695C152.199 21.9922 153.035 20.2889 153.088 18.26H148.983C148.931 19.4123 148.486 20.2889 147.78 20.8901C146.996 21.5664 145.898 21.9421 144.512 21.9421C142.499 21.9421 141.061 21.1406 140.329 19.5876C139.884 18.6608 139.727 17.5086 139.727 15.9306C139.727 14.3275 139.91 13.2254 140.329 12.2986C141.035 10.7957 142.42 9.919 144.512 9.919C145.898 9.919 146.917 10.2947 147.702 10.946C148.434 11.5972 148.852 12.499 148.904 13.6762H153.009C152.931 11.6473 152.146 9.89396 150.708 8.6666C149.218 7.36409 147.126 6.6377 144.643 6.6377C140.616 6.6377 137.845 8.34097 136.538 11.1714C135.91 12.524 135.596 14.077 135.596 15.9306C135.596 17.7841 135.884 19.3371 136.512 20.6897C137.871 23.5703 140.669 25.2234 144.669 25.2234Z" fill="black"/>
<path d="M164.863 25.2234C168.889 25.2234 171.608 23.5703 172.942 20.7649C173.595 19.4123 173.909 17.734 173.909 15.9306C173.909 14.1271 173.595 12.4739 172.942 11.0963C171.634 8.31592 168.889 6.6377 164.889 6.6377C160.863 6.6377 158.091 8.31592 156.784 11.1213C156.156 12.499 155.843 14.1521 155.843 15.9306C155.843 17.734 156.156 19.3872 156.81 20.7398C158.117 23.5703 160.863 25.2234 164.863 25.2234ZM164.889 21.892C162.667 21.892 161.281 20.9652 160.575 19.4624C160.13 18.4855 159.947 17.4084 159.947 15.9306C159.947 14.4527 160.13 13.3757 160.575 12.3988C161.281 10.8959 162.667 9.9691 164.863 9.9691C167.085 9.9691 168.471 10.8959 169.177 12.3988C169.647 13.3757 169.804 14.4527 169.804 15.9306C169.804 17.4084 169.621 18.4855 169.177 19.4373C168.471 20.9652 167.111 21.892 164.889 21.892Z" fill="black"/>
</svg>
