<svg width="164" height="29" viewBox="0 0 164 29" fill="none" xmlns="http://www.w3.org/2000/svg">
<path d="M58.4262 28.9997C52.4853 28.9997 46.9705 27.2103 43.2894 23.8918C40.5083 21.3847 39.172 17.9792 39.172 14.4742C39.172 11.0119 40.566 7.58291 43.2891 5.08901C46.7077 1.95973 52.7435 0 58.4262 0C64.7148 0 69.7481 1.59094 73.5958 5.09761C76.3334 7.59283 77.657 11.0066 77.657 14.4745C77.657 17.836 76.2524 21.4158 73.5958 23.8918C70.0128 27.2318 64.3822 28.9997 58.4262 28.9997V25.1748C61.5794 25.1748 64.5044 24.0813 66.5471 22.0399C68.5757 20.0124 69.5209 17.5201 69.5209 14.4742C69.5209 11.5563 68.5013 8.8282 66.5471 6.89328C64.5317 4.89948 61.5369 3.77756 58.4262 3.77756C55.3059 3.77756 52.3091 4.88791 50.292 6.89328C48.3484 8.82754 47.3262 11.5636 47.3262 14.4742C47.3262 17.3759 48.3602 20.1103 50.292 22.0402C52.3107 24.0572 55.297 25.1751 58.4262 25.1751V29V28.9997ZM15.0044 0.0138918C11.8264 0.0138918 8.21614 0.610906 5.14855 1.98685C2.31741 3.25563 6.70975e-07 5.30764 6.70975e-07 8.70946C-0.0013166 11.7732 1.93737 13.5676 1.88468 13.518C2.70929 14.2804 4.03677 15.5786 7.50745 16.341C9.05853 16.6817 12.3748 17.2049 15.6771 17.5516C18.9552 17.8988 22.1812 18.2289 23.4951 18.563C24.5391 18.8299 26.2927 19.1934 26.2927 21.1694C26.2927 23.1374 24.4452 23.738 24.1241 23.8683C23.8034 23.9957 21.5871 25.017 17.603 25.017C14.6615 25.017 11.1253 24.1286 9.83638 23.6656C8.3505 23.1344 6.79184 22.4319 5.3379 20.6481C4.97631 20.2059 4.40594 18.9897 4.40594 17.7854H0.800242V27.933H4.80803V26.562C4.80803 26.4059 5.00233 25.7639 5.67513 26.0692C6.51225 26.4512 8.96962 27.4339 11.5389 27.9727C13.6456 28.4152 15.004 28.7324 17.6231 28.7324C21.8963 28.7324 24.192 28.0332 25.779 27.5781C27.2741 27.1481 29.1215 26.3761 30.6222 25.1741C31.435 24.5242 33.2172 22.8582 33.2172 19.8341C33.2172 16.9314 31.6662 15.1298 31.1205 14.5817C30.3772 13.8348 29.4693 13.256 28.5232 12.8098C27.6989 12.4202 26.3981 11.9522 25.3337 11.6906C23.2679 11.1812 18.5969 10.5528 16.3631 10.3179C14.0207 10.0722 9.95724 9.73414 8.33436 9.22974C7.84236 9.0766 6.83926 8.59667 6.83926 7.42712C6.83926 6.59527 7.298 5.8901 8.20461 5.32021C9.64373 4.4146 12.5506 3.85165 15.5807 3.85165C19.163 3.83842 22.1966 4.66101 24.1264 5.52759C24.7828 5.82196 25.5507 6.24467 26.1606 6.74477C26.8489 7.30838 27.8151 8.47958 28.1645 10.1132H31.4017V1.28002H27.7871V2.30669C27.7871 2.63811 27.4463 3.06875 26.8018 2.71286C25.1842 1.8605 20.6107 0.0214991 15.0037 0.0138918H15.0044ZM94.2164 1.61905L111.849 17.6012L111.668 6.84069C111.65 5.42969 111.391 4.84061 109.871 4.84061H106.556V1.6217H121.632V4.84061H118.398C116.849 4.84061 116.751 5.3384 116.732 6.84069L117.005 27.4015H111.842L91.5334 9.19666L91.5377 22.1166C91.5555 23.521 91.621 24.1825 93.0618 24.1825H96.6826V27.4001H81.8765V24.1829H85.3376C86.6305 24.1829 86.5792 22.9449 86.5792 22.0435V6.96307C86.5792 5.98966 86.4432 4.84293 84.4132 4.84293H81.6048V1.61905H94.2164ZM138.86 24.1766C139.002 24.1766 139.631 24.1584 139.752 24.121C140.1 24.0119 140.337 23.7625 140.446 23.5025C140.492 23.3934 140.515 22.9105 140.515 22.8056L140.518 17.7186C140.518 17.5962 140.509 17.5433 140.302 17.2707C140.075 16.9731 131.066 6.71963 130.654 6.26815C130.142 5.70752 129.243 4.84094 127.877 4.84094H124.744V1.6207H142.424V4.83697H140.293C139.8 4.83697 139.472 5.30664 139.893 5.82858C139.893 5.82858 145.842 12.9752 145.898 13.05C145.953 13.126 146.001 13.1442 146.077 13.0748C146.151 13.0037 152.174 5.89407 152.222 5.83784C152.508 5.49319 152.314 4.84061 151.696 4.84061H149.51V1.6207H164V4.84061H160.763C159.588 4.84061 159.111 5.05891 158.227 6.06209C157.823 6.52118 148.718 16.9588 148.471 17.2416C148.341 17.3895 148.352 17.5955 148.352 17.7179V22.8043C148.352 22.9075 148.375 23.391 148.421 23.4995C148.531 23.7608 148.768 24.0102 149.116 24.118C149.238 24.1558 149.858 24.1743 150 24.1743H153.311V27.3938H135.722V24.1739L138.861 24.1766H138.86Z" fill="white"/>
</svg>
