<svg width="21" height="21" viewBox="0 0 21 21" fill="none" xmlns="http://www.w3.org/2000/svg">
<mask id="path-1-inside-1" fill="white">
<path fill-rule="evenodd" clip-rule="evenodd" d="M4.38101 5.79465L4.38101 1.36948L19.4266 1.36948L19.4266 5.79466L19.4264 5.79466L19.4264 16.8577L15.4438 16.8577L15.4438 8.45567L5.20137 18.6981L2.34962 15.8463L12.4013 5.79466L4.38101 5.79465Z"/>
</mask>
<path fill-rule="evenodd" clip-rule="evenodd" d="M4.38101 5.79465L4.38101 1.36948L19.4266 1.36948L19.4266 5.79466L19.4264 5.79466L19.4264 16.8577L15.4438 16.8577L15.4438 8.45567L5.20137 18.6981L2.34962 15.8463L12.4013 5.79466L4.38101 5.79465Z" fill="black"/>
<path d="M4.38101 1.36948L4.38101 0.369477L3.38101 0.369477L3.38101 1.36948L4.38101 1.36948ZM4.38101 5.79465L3.38101 5.79465L3.38101 6.79465L4.38101 6.79465L4.38101 5.79465ZM19.4266 1.36948L20.4266 1.36948L20.4266 0.369479L19.4266 0.369478L19.4266 1.36948ZM19.4266 5.79466L19.4276 6.79466L20.4266 6.79365L20.4266 5.79466L19.4266 5.79466ZM19.4264 5.79466L19.4254 4.79466L18.4264 4.79566L18.4264 5.79466L19.4264 5.79466ZM19.4264 16.8577L19.4264 17.8577L20.4264 17.8577L20.4264 16.8577L19.4264 16.8577ZM15.4438 16.8577L14.4438 16.8577L14.4438 17.8577L15.4438 17.8577L15.4438 16.8577ZM15.4438 8.45567L16.4438 8.45567L16.4438 6.04146L14.7367 7.74857L15.4438 8.45567ZM5.20137 18.6981L4.49427 19.4052L5.20137 20.1123L5.90848 19.4052L5.20137 18.6981ZM2.34962 15.8463L1.64252 15.1392L0.935409 15.8463L1.64252 16.5534L2.34962 15.8463ZM12.4013 5.79466L13.1084 6.50176L14.8155 4.79466L12.4013 4.79466L12.4013 5.79466ZM3.38101 1.36948L3.38101 5.79465L5.38101 5.79465L5.38101 1.36948L3.38101 1.36948ZM19.4266 0.369478L4.38101 0.369477L4.38101 2.36948L19.4266 2.36948L19.4266 0.369478ZM20.4266 5.79466L20.4266 1.36948L18.4266 1.36948L18.4266 5.79466L20.4266 5.79466ZM19.4274 6.79466L19.4276 6.79466L19.4256 4.79466L19.4254 4.79466L19.4274 6.79466ZM20.4264 16.8577L20.4264 5.79466L18.4264 5.79466L18.4264 16.8577L20.4264 16.8577ZM15.4438 17.8577L19.4264 17.8577L19.4264 15.8577L15.4438 15.8577L15.4438 17.8577ZM14.4438 8.45567L14.4438 16.8577L16.4438 16.8577L16.4438 8.45567L14.4438 8.45567ZM14.7367 7.74857L4.49427 17.991L5.90848 19.4052L16.1509 9.16278L14.7367 7.74857ZM5.90848 17.991L3.05673 15.1392L1.64252 16.5534L4.49427 19.4052L5.90848 17.991ZM3.05673 16.5534L13.1084 6.50176L11.6942 5.08755L1.64252 15.1392L3.05673 16.5534ZM4.38101 6.79465L12.4013 6.79466L12.4013 4.79466L4.38101 4.79465L4.38101 6.79465Z" fill="black" mask="url(#path-1-inside-1)"/>
</svg>
